<svg xmlns="http://www.w3.org/2000/svg" viewBox="0 0 1600 600" enable-background="new 0 0 1600 600"><g><path fill="#F3F4FB" d="M0 0h1600v600h-1600zM937.86 501.81h34.39v34.39h-34.39zM988.52 502.27h34.39v34.39h-34.39z"/><path fill="#fff" d="M1191.44 199.66h294.1v293.54h-294.1z"/><path fill="#F3F4FB" d="M1338.49 199.66h147.05v147.05h-147.05z"/><path fill="#EBEDF7" d="M1338.49 346.15h147.05v147.05h-147.05z"/><g fill="#EBEDF7"><path d="M1483.74 199.88l-.05-6c-.01-.97.77-1.76 1.74-1.76.96-.01 1.74.75 1.76 1.7v.06l.15 6c.03 1-.76 1.82-1.76 1.85-.99.02-1.82-.76-1.85-1.76v-.02l.01-.07zM1483.59 181.35c-.05-4.18-.01-8.35-.02-12.53v-.01c0-.97.78-1.75 1.75-1.75s1.75.78 1.75 1.75v.01l-.04 6.26c-.03 2.09-.01 4.17.02 6.26.01.96-.75 1.74-1.7 1.76-.96.02-1.74-.75-1.76-1.7v-.05zM1483.57 156.3c-.01-2.09.04-4.18.06-6.26l.08-6.26v-.01c.01-.94.79-1.7 1.73-1.69.93.01 1.68.77 1.69 1.7l.03 6.26c0 2.09.04 4.17.01 6.26v.02c-.02.99-.83 1.79-1.82 1.77-.98-.01-1.77-.81-1.78-1.79zM1483.86 131.25l.06-6.26c.01-2.09.06-4.18.04-6.26-.01-.85.67-1.55 1.53-1.56.85-.01 1.55.67 1.56 1.53v.04c-.02 2.09.01 4.18.01 6.26l.02 6.26v.01c0 .89-.72 1.61-1.6 1.62-.89 0-1.61-.72-1.62-1.6v-.04zM1483.88 106.2l-.09-12.53c-.01-.97.77-1.76 1.73-1.77.97-.01 1.76.77 1.77 1.73v.03l-.12 12.53c-.01.91-.75 1.64-1.66 1.63-.9.01-1.62-.72-1.63-1.62zM1483.69 81.15l.07-12.52v-.01c.01-1.01.83-1.83 1.85-1.83s1.83.82 1.83 1.84l-.01 12.52v.01c0 1.03-.84 1.86-1.87 1.86-1.04.01-1.87-.83-1.87-1.87zM1483.85 56.1c.03-4.18.1-8.35.07-12.53v-.02c-.01-.98.78-1.77 1.75-1.78.98-.01 1.77.78 1.78 1.75v.04c-.07 4.17-.03 8.35-.03 12.53v.01c0 .99-.8 1.78-1.79 1.78s-1.78-.8-1.78-1.79v.01zM1483.81 31.05c-.04-4.18-.13-8.35-.11-12.53.01-1.06.87-1.91 1.92-1.9 1.04.01 1.89.85 1.9 1.88v.02c.06 4.18 0 8.35 0 12.53 0 1.03-.83 1.86-1.86 1.86-1.02 0-1.85-.82-1.86-1.84v-.02zM1483.73 6l.01-6c0-1 .81-1.8 1.81-1.8.99 0 1.79.8 1.8 1.78v.02l.06 6c.01 1.02-.8 1.85-1.82 1.86-1.02.01-1.85-.8-1.86-1.82v-.04z"/></g><g fill="#EBEDF7"><path d="M1390.8 1.27l-4.22 4.27c-.68.69-1.8.7-2.49.01-.69-.68-.7-1.78-.03-2.48l.03-.03 4.16-4.32c.69-.72 1.83-.74 2.55-.05.72.69.74 1.83.05 2.55l-.01.01-.04.04zM1378.31 13.91l-8.27 8.37c-.67.68-1.76.68-2.44.01-.68-.67-.68-1.76-.01-2.44l.01-.01 8.26-8.39c.67-.69 1.78-.69 2.46-.02.68.67.69 1.78.02 2.46l-.03.02zM1361.72 30.6l-8.33 8.32-.01.01c-.69.69-1.82.69-2.51 0-.69-.69-.69-1.82 0-2.51l.01-.01 8.37-8.28.01-.01c.69-.68 1.79-.67 2.47.01s.67 1.79-.01 2.47zM1345.06 47.23l-8.4 8.25-.01.01c-.68.67-1.77.66-2.44-.02-.66-.67-.66-1.76.01-2.43l8.29-8.35.01-.01c.7-.71 1.84-.71 2.55-.01.71.7.71 1.84.01 2.55l-.02.01zM1328.27 63.73l-8.38 8.26c-.63.62-1.64.61-2.26-.02-.62-.62-.61-1.63.01-2.25l8.3-8.34.01-.01c.64-.65 1.69-.65 2.34-.01.65.64.65 1.69.01 2.34l-.03.03zM1311.51 80.25l-8.29 8.35c-.62.63-1.63.63-2.26.01-.63-.62-.63-1.63-.01-2.26l.01-.01 8.37-8.27c.6-.6 1.58-.6 2.18.01.59.6.59 1.57 0 2.17zM1294.93 96.96l-8.28 8.36c-.67.68-1.77.69-2.45.02-.68-.67-.69-1.77-.02-2.45l.02-.02 8.38-8.26c.65-.65 1.7-.64 2.35.01.64.65.64 1.7 0 2.34zM1278.38 113.7c-2.77 2.78-5.5 5.6-8.29 8.35l-.01.01c-.73.72-1.91.71-2.63-.02s-.71-1.89.01-2.62c2.76-2.78 5.58-5.52 8.37-8.28.71-.7 1.85-.7 2.56.01.69.7.68 1.84-.01 2.55zM1261.73 130.33l-8.36 8.29-.01.01c-.71.7-1.86.7-2.56-.01s-.7-1.85.01-2.55l8.32-8.32.01-.01c.72-.72 1.88-.72 2.6 0 .71.71.71 1.87-.01 2.59zM1245 146.89c-2.79 2.76-5.59 5.5-8.36 8.28l-.01.01c-.68.69-1.79.69-2.48.01-.69-.68-.69-1.79-.01-2.48l.01-.01c2.8-2.75 5.55-5.54 8.33-8.31l.01-.01c.69-.69 1.82-.69 2.51 0s.69 1.82 0 2.51zM1228.33 163.51l-8.25 8.4c-.72.74-1.91.75-2.64.02s-.75-1.91-.02-2.65l.01-.01.01-.01 8.34-8.31c.71-.7 1.85-.7 2.56 0 .69.71.69 1.84-.01 2.56zM1211.83 180.29l-8.33 8.31c-.73.73-1.92.73-2.66 0-.73-.73-.73-1.91-.01-2.64l.01-.01 8.26-8.38c.75-.76 1.97-.77 2.73-.02s.77 1.97.02 2.73l-.02.01zM1195.16 196.92l-4.25 4.24c-.7.7-1.85.7-2.55 0-.7-.7-.7-1.83-.01-2.54l.01-.01 4.21-4.27c.71-.72 1.87-.73 2.58-.02s.73 1.87.02 2.58l-.01.02z"/></g><path fill="#fff" d="M1190.63 0h147.15v51.31h-147.15zM1042.76 563.79h147.15v36.21h-147.15z"/><path fill="#EBEDF7" d="M748.52 274.8h293.89v288.98h-293.89zM803.41 250.26c-.14-1.89-.22-3.77-.02-5.65.09-.94.31-1.88.36-2.82.08-.94.02-1.88-.06-2.83-.08-.94-.14-1.89-.08-2.83.05-.94.17-1.88.25-2.82.12-.94-.03-1.88-.13-2.83-.05-.94-.04-1.88.05-2.82.1-.99.99-1.71 1.98-1.61.84.09 1.49.74 1.6 1.54l.02.14c.07.47.1.94.12 1.41.02.47.07.94.05 1.41 0 .47-.04.94-.07 1.41-.05.47-.13.94-.13 1.41-.01.94 0 1.88-.03 2.82-.02.94-.13 1.88-.26 2.82-.12.94-.23 1.88-.23 2.82-.03.94.09 1.88.08 2.83.05.94-.17 1.88-.2 2.82-.01.94.03 1.88.28 2.83.25.97-.33 1.95-1.3 2.2-.97.25-1.95-.33-2.2-1.3l-.05-.31-.03-.64zM839.4 250.26c-.14-1.89-.22-3.77-.02-5.65.09-.94.31-1.88.36-2.82.08-.94.02-1.88-.06-2.83-.08-.94-.14-1.89-.08-2.83.05-.94.17-1.88.25-2.82.12-.94-.03-1.88-.13-2.83-.05-.94-.04-1.88.05-2.82.1-.99.99-1.71 1.98-1.61.84.09 1.49.74 1.6 1.54l.02.14c.07.47.1.94.12 1.41.02.47.07.94.05 1.41.01.47-.04.94-.07 1.41-.05.47-.13.94-.13 1.41-.01.94 0 1.88-.03 2.82-.02.94-.13 1.88-.26 2.82-.12.94-.23 1.88-.23 2.82-.03.94.09 1.88.08 2.83.05.94-.17 1.88-.2 2.82-.01.94.03 1.88.28 2.83.25.97-.33 1.95-1.3 2.2-.97.25-1.95-.33-2.2-1.3l-.05-.31-.03-.64zM875.39 250.26c-.14-1.89-.22-3.77-.02-5.65.09-.94.31-1.88.36-2.82.08-.94.02-1.88-.06-2.83-.08-.94-.14-1.89-.08-2.83.05-.94.17-1.88.25-2.82.12-.94-.03-1.88-.13-2.83-.05-.94-.04-1.88.05-2.82.1-.99.99-1.71 1.98-1.61.84.09 1.49.74 1.6 1.54l.02.14c.07.47.1.94.12 1.41.02.47.07.94.05 1.41.01.47-.04.94-.07 1.41-.05.47-.13.94-.13 1.41-.01.94 0 1.88-.03 2.82-.02.94-.13 1.88-.26 2.82-.12.94-.23 1.88-.23 2.82-.03.94.09 1.88.08 2.83.05.94-.17 1.88-.2 2.82-.01.94.03 1.88.28 2.83.25.97-.33 1.95-1.3 2.2-.97.25-1.95-.33-2.2-1.3l-.05-.31-.03-.64zM911.39 250.26c-.14-1.89-.22-3.77-.02-5.65.09-.94.31-1.88.36-2.82.08-.94.02-1.88-.06-2.83-.08-.94-.14-1.89-.08-2.83.05-.94.17-1.88.25-2.82.12-.94-.03-1.88-.13-2.83-.05-.94-.04-1.88.05-2.82.1-.99.99-1.71 1.98-1.61.84.09 1.49.74 1.6 1.54l.02.14c.07.47.1.94.12 1.41.02.47.07.94.05 1.41 0 .47-.04.94-.07 1.41-.05.47-.13.94-.13 1.41-.01.94 0 1.88-.03 2.82-.02.94-.13 1.88-.26 2.82-.12.94-.23 1.88-.23 2.82-.02.94.09 1.88.08 2.83.05.94-.17 1.88-.2 2.82-.01.94.03 1.88.28 2.83.25.97-.33 1.95-1.3 2.2-.97.25-1.95-.33-2.2-1.3l-.05-.31-.03-.64zM947.38 250.26c-.14-1.89-.22-3.77-.02-5.65.09-.94.31-1.88.36-2.82.08-.94.02-1.88-.06-2.83-.08-.94-.14-1.89-.08-2.83.05-.94.17-1.88.25-2.82.12-.94-.03-1.88-.13-2.83-.05-.94-.04-1.88.05-2.82.1-.99.99-1.71 1.98-1.61.84.09 1.49.74 1.6 1.54l.02.14c.07.47.1.94.12 1.41.02.47.07.94.05 1.41.01.47-.04.94-.07 1.41-.05.47-.13.94-.13 1.41-.01.94 0 1.88-.03 2.82-.02.94-.13 1.88-.26 2.82-.12.94-.23 1.88-.23 2.82-.03.94.09 1.88.08 2.83.05.94-.17 1.88-.2 2.82-.01.94.03 1.88.28 2.83.25.97-.33 1.95-1.3 2.2-.97.25-1.95-.33-2.2-1.3l-.05-.31-.03-.64zM983.37 250.26c-.14-1.89-.22-3.77-.02-5.65.09-.94.31-1.88.36-2.82.08-.94.02-1.88-.06-2.83-.08-.94-.14-1.89-.08-2.83.05-.94.17-1.88.25-2.82.12-.94-.03-1.88-.13-2.83-.05-.94-.04-1.88.05-2.82.1-.99.99-1.71 1.98-1.61.84.09 1.49.74 1.6 1.54l.02.14c.07.47.1.94.12 1.41.02.47.07.94.05 1.41 0 .47-.04.94-.07 1.41-.05.47-.13.94-.13 1.41-.01.94 0 1.88-.03 2.82-.02.94-.13 1.88-.26 2.82-.12.94-.23 1.88-.23 2.82-.03.94.09 1.88.08 2.83.05.94-.17 1.88-.2 2.82-.01.94.03 1.88.28 2.83.25.97-.33 1.95-1.3 2.2-.97.25-1.95-.33-2.2-1.3l-.05-.31-.03-.64zM1019.37 250.26c-.14-1.89-.22-3.77-.02-5.65.09-.94.31-1.88.36-2.82.08-.94.02-1.88-.06-2.83-.08-.94-.14-1.89-.08-2.83.05-.94.17-1.88.25-2.82.12-.94-.03-1.88-.13-2.83-.05-.94-.04-1.88.05-2.82.1-.99.99-1.71 1.98-1.61.84.09 1.49.74 1.6 1.54l.02.14c.07.47.1.94.12 1.41.02.47.07.94.05 1.41.01.47-.04.94-.07 1.41-.05.47-.13.94-.13 1.41-.01.94 0 1.88-.03 2.82-.02.94-.13 1.88-.26 2.82-.12.94-.23 1.88-.23 2.82-.03.94.09 1.88.08 2.83.05.94-.17 1.88-.2 2.82-.01.94.03 1.88.28 2.83.25.97-.33 1.95-1.3 2.2-.97.25-1.95-.33-2.2-1.3l-.05-.31-.03-.64z"/><path fill="#F3F4FB" d="M933.4 397.35h35.34v35.34h-35.34zM985.46 397.83h35.34v35.34h-35.34z"/><path fill="#EBEDF7" d="M747.51 54.04l.63 145.84c-80.55 0-145.84-65.3-145.84-145.84h145.21zM9.03 199.66v.22c-3.03 0-6.04-.09-9.03-.28v-145.56h8.4l.63 145.62z"/><path fill="#F3F4F8" d="M748.77 199.88l-.63-145.84c80.55 0 145.84 65.3 145.84 145.84h-145.21zM593.86 600h-137.3l-.42-97.72c63.69 0 117.84 40.82 137.72 97.72z"/><circle fill="#F3F4FB" cx="676.01" cy="79.1" r="6.31"/><circle fill="#fff" cx="676.01" cy="30.49" r="6.31"/><circle fill="#F3F4FB" cx="724.62" cy="79.1" r="6.31"/><circle fill="#fff" cx="724.62" cy="30.49" r="6.31"/><circle fill="#EBEDF7" cx="773.23" cy="79.1" r="6.31"/><circle fill="#fff" cx="773.23" cy="30.49" r="6.31"/><path fill="#F3F4F8" d="M946.4 0l-52.51 52.51v-52.51z"/><path fill="#EBEDF7" d="M1190.6 52.17v148.53l-148.53-148.53z"/><path fill="#fff" d="M994.81 0c-6.3 7.73-15.9 12.66-26.66 12.66-9.5 0-18.1-3.85-24.33-10.08-.82-.82-1.6-1.68-2.33-2.58h53.32z"/><path fill="#EBEDF7" d="M455.83 501.8h-302.14l302.14-302.14z"/><circle fill="#fff" cx="304.76" cy="351.58" r="70"/><path fill="#F3F4FB" d="M910.44 310.16c4.04-.06 8.08-.16 12.12-.17 4.04.03 8.08-.04 12.12.07 4.04.12 8.08.21 12.12.28 2.02.07 4.04.03 6.06 0l6.06-.08 6.06-.1 3.03-.05 3.03.03c4.04.03 8.08.11 12.12.18 2.02.05 4.04 0 6.06 0l6.06-.16c2.02-.07 4.04-.03 6.06-.04 2.02-.01 4.04 0 6.06.04 1 .02 1.78.85 1.76 1.84-.02.96-.79 1.73-1.74 1.76h-.02c-8.08.26-16.16.26-24.24.07-8.08.03-16.16.04-24.24-.19l-6.06-.12c-2.02-.04-4.04-.09-6.06-.05l-12.12.11c-2.02.05-4.04-.01-6.06-.05l-6.06-.09c-2.02-.06-4.04.06-6.06.09l-3.03.07-3.03.15c-.99.05-1.84-.71-1.89-1.71s.71-1.84 1.71-1.89h.06l.12.01zM910.44 332.8c4.04-.06 8.08-.16 12.12-.17 4.04.03 8.08-.05 12.12.07 4.04.12 8.08.21 12.12.28 2.02.07 4.04.03 6.06 0l6.06-.08 6.06-.1 3.03-.05 3.03.03c4.04.04 8.08.11 12.12.18 2.02.05 4.04 0 6.06 0l6.06-.16c2.02-.07 4.04-.03 6.06-.04 2.02-.01 4.04 0 6.06.04 1 .02 1.78.85 1.76 1.84-.02.96-.79 1.73-1.74 1.76h-.02c-8.08.26-16.16.26-24.24.07-8.08.03-16.16.04-24.24-.19l-6.06-.12c-2.02-.04-4.04-.09-6.06-.05l-12.12.11c-2.02.05-4.04-.01-6.06-.05l-6.06-.09c-2.02-.06-4.04.06-6.06.09l-3.03.07-3.03.16c-.99.05-1.84-.71-1.89-1.71-.05-.99.71-1.84 1.71-1.89h.18zM910.44 355.43c4.04-.06 8.08-.16 12.12-.17 4.04.03 8.08-.04 12.12.07 4.04.12 8.08.21 12.12.28 2.02.07 4.04.03 6.06 0l6.06-.08 6.06-.1 3.03-.05 3.03.03c4.04.04 8.08.11 12.12.18 2.02.05 4.04 0 6.06 0l6.06-.16c2.02-.07 4.04-.03 6.06-.04 2.02-.01 4.04 0 6.06.04 1 .02 1.78.85 1.76 1.84-.02.96-.79 1.73-1.74 1.76h-.02c-8.08.26-16.16.26-24.24.07-8.08.03-16.16.04-24.24-.19l-6.06-.12c-2.02-.04-4.04-.09-6.06-.05l-12.12.11c-2.02.05-4.04-.01-6.06-.05l-6.06-.09c-2.02-.06-4.04.06-6.06.09l-3.03.07-3.03.16c-.99.05-1.84-.71-1.89-1.71-.05-.99.71-1.84 1.71-1.89h.18z"/><path fill="#fff" d="M602.3 199.88h146.23v146.47h-146.23z"/><g fill="#EBEDF7"><path d="M585.72 373.92v6l-1.8-1.8 6-.02c.99 0 1.8.8 1.8 1.79s-.8 1.8-1.79 1.8h-.01l-6 .03c-.99.01-1.8-.79-1.8-1.78v-.02l-.02-6c0-1 .81-1.82 1.81-1.82s1.82.81 1.82 1.81v.01h-.01zM602.11 378.06l12.2-.03c.97 0 1.77.79 1.77 1.76 0 .98-.79 1.77-1.76 1.77h-.01l-12.2.06c-.98.01-1.78-.79-1.79-1.77-.01-.98.79-1.78 1.77-1.79h.02zM626.52 378l12.2-.03c.96 0 1.74.77 1.74 1.73s-.77 1.74-1.73 1.74h-.01l-12.2.06c-.97 0-1.75-.77-1.76-1.74 0-.97.77-1.75 1.74-1.76h.02zM650.92 377.94h12.2c.96 0 1.74.77 1.74 1.74 0 .96-.77 1.74-1.74 1.74h-.01l-12.2-.03c-.95 0-1.73-.77-1.73-1.73.02-.95.79-1.72 1.74-1.72zM675.33 377.94h12.2c.97 0 1.77.79 1.77 1.76s-.79 1.77-1.76 1.77h-.01l-12.2-.03c-.97 0-1.75-.78-1.75-1.75 0-.96.78-1.75 1.75-1.75zM699.73 377.95h12.209999999999999c.99 0 1.8.81 1.8 1.8s-.81 1.8-1.8 1.8l-12.2-.04h-.01c-.98 0-1.78-.8-1.78-1.79s.8-1.77 1.78-1.77zM724.14 377.98l6 .03-1.91 1.91.03-6v-.01c0-.97.79-1.75 1.76-1.74.96 0 1.74.79 1.74 1.75l.01 6c0 .9-.73 1.63-1.63 1.63l-6 .01h-.01c-.99 0-1.79-.8-1.79-1.78 0-.99.8-1.79 1.78-1.79h.02zM728.31 361.69l.05-12.22c0-.93.75-1.68 1.68-1.67.92 0 1.67.75 1.67 1.67l.02 12.22v.01c0 .95-.76 1.71-1.71 1.72s-1.71-.76-1.72-1.71v-.02zM728.41 337.24l.04-12.23c0-.89.73-1.61 1.62-1.61.89 0 1.61.72 1.61 1.61l.02 12.23c0 .91-.73 1.65-1.64 1.65-.91 0-1.65-.73-1.65-1.64v-.01zM728.5 312.79l.04-12.22c0-.86.7-1.56 1.56-1.55.86 0 1.56.69 1.55 1.55l.02 12.22c0 .88-.7 1.59-1.58 1.59-.88 0-1.59-.7-1.59-1.58v-.01zM728.56 288.34l-.03-12.23c0-.87.7-1.58 1.58-1.59s1.58.7 1.59 1.58v.01l-.04 12.23c0 .85-.7 1.54-1.55 1.54-.86 0-1.55-.69-1.55-1.54zM728.5 263.89l-.03-12.22c0-.91.73-1.65 1.64-1.65.91 0 1.65.73 1.65 1.64v.01l-.04 12.22c0 .89-.73 1.61-1.62 1.61-.88 0-1.6-.72-1.6-1.61zM728.45 239.45l-.01-6 1.71 1.71-6 .02c-.95 0-1.72-.76-1.72-1.71s.76-1.72 1.71-1.72h.01l6 .02h.01c.93 0 1.69.76 1.68 1.7l-.02 6c0 .93-.76 1.68-1.69 1.68-.93-.03-1.68-.78-1.68-1.7zM711.94 235.2l-12.2.03c-.99 0-1.79-.8-1.8-1.79 0-.99.8-1.79 1.79-1.8h.01l12.2.04c.97 0 1.75.79 1.75 1.76-.01.97-.79 1.76-1.75 1.76zM687.53 235.26l-12.2.03c-1.03 0-1.87-.83-1.87-1.86 0-1.03.83-1.87 1.86-1.87h.01l12.2.04c1.01 0 1.83.82 1.82 1.83 0 1.02-.82 1.83-1.82 1.83zM663.13 235.27l-12.2-.03c-1.01 0-1.84-.82-1.84-1.84 0-1.01.82-1.84 1.84-1.84h12.2c1.02 0 1.85.82 1.86 1.85-.01 1.02-.83 1.85-1.86 1.86zM638.72 235.21l-12.2-.03c-1 0-1.81-.81-1.81-1.81s.81-1.81 1.81-1.81h12.2c1.01 0 1.82.81 1.82 1.82s-.81 1.83-1.82 1.83zM614.32 235.15l-12.2-.03c-.98 0-1.77-.79-1.77-1.77s.79-1.77 1.77-1.77h12.2c.99 0 1.79.8 1.79 1.79 0 .97-.8 1.78-1.79 1.78zM589.91 235.09l-6-.01 1.63-1.63-.01 6c0 .96-.78 1.74-1.74 1.74s-1.74-.78-1.74-1.74v-6c0-1.04.84-1.88 1.87-1.88h6c.97 0 1.76.78 1.76 1.76 0 .97-.79 1.76-1.77 1.76zM585.53 251.67l.01 12.22v.01c0 .99-.8 1.79-1.79 1.79s-1.79-.8-1.79-1.79v-.01l.04-12.22v-.01c0-.98.8-1.76 1.77-1.76.98.01 1.76.79 1.76 1.77zM585.57 276.12l.05 12.23c0 1.02-.82 1.86-1.85 1.86-1.02 0-1.86-.82-1.86-1.85v-.02l.01-12.23c0-1.01.82-1.82 1.82-1.82 1.02.01 1.83.82 1.83 1.83zM585.68 300.57l.05 12.22c0 1.06-.85 1.92-1.91 1.93-1.06 0-1.92-.85-1.93-1.91v-.02l.01-12.22c0-1.04.85-1.89 1.89-1.88 1.04-.01 1.88.83 1.89 1.88zM585.75 325.02l-.01 12.23c0 1.04-.85 1.89-1.89 1.89s-1.89-.85-1.89-1.89l-.04-12.23c0-1.06.85-1.92 1.91-1.92s1.92.85 1.92 1.91v.01zM585.73 349.47l-.01 12.22c0 1.02-.82 1.84-1.84 1.84s-1.84-.82-1.84-1.84l-.04-12.22c0-1.03.83-1.87 1.86-1.87 1.03 0 1.87.83 1.87 1.86v.01z"/></g><g fill="#EBEDF7"><path d="M864.07 161.24v6l-1.8-1.8 6-.02c.99 0 1.8.8 1.8 1.79s-.8 1.8-1.79 1.8h-.01l-6 .03c-.99.01-1.8-.79-1.8-1.78v-.02l-.02-6c0-1 .81-1.82 1.81-1.82s1.82.81 1.82 1.81v.01h-.01zM880.47 165.39l12.2-.03c.97 0 1.77.79 1.77 1.76 0 .98-.79 1.77-1.76 1.77h-.01l-12.2.06c-.98 0-1.78-.79-1.79-1.77-.01-.98.79-1.78 1.77-1.79h.02zM904.88 165.32l12.2-.03c.96 0 1.74.77 1.74 1.73s-.77 1.74-1.73 1.74h-.01l-12.2.06c-.97 0-1.75-.77-1.76-1.74 0-.97.77-1.75 1.74-1.76h.02zM929.28 165.27h12.2c.96 0 1.74.77 1.74 1.73s-.77 1.74-1.74 1.74h-.01l-12.2-.03c-.95 0-1.73-.77-1.73-1.73.01-.94.79-1.71 1.74-1.71zM953.69 165.27h12.2c.97 0 1.77.79 1.77 1.76s-.79 1.77-1.76 1.77h-.01l-12.2-.03c-.97 0-1.75-.78-1.75-1.75-.01-.97.78-1.75 1.75-1.75zM978.09 165.28h12.209999999999999c.99 0 1.8.81 1.8 1.8s-.81 1.8-1.8 1.8l-12.2-.04h-.01c-.98 0-1.78-.8-1.78-1.79 0-.98.8-1.78 1.78-1.77zM1002.49 165.31l6 .03-1.91 1.91.03-6c0-.97.79-1.75 1.76-1.74.96 0 1.74.79 1.74 1.75l.01 6c0 .9-.73 1.63-1.63 1.63l-6 .01h-.01c-.99 0-1.79-.8-1.79-1.78 0-.99.8-1.79 1.78-1.79h.02zM1006.67 149.02l.05-12.22c0-.93.75-1.68 1.68-1.67.92 0 1.67.75 1.67 1.67l.02 12.22c0 .95-.76 1.71-1.71 1.72s-1.71-.76-1.72-1.71v-.01zM1006.77 124.57l.04-12.23c0-.89.73-1.61 1.62-1.61s1.61.72 1.61 1.61l.02 12.23c0 .91-.73 1.65-1.64 1.65-.91 0-1.65-.73-1.65-1.64v-.01zM1006.85 100.12l.04-12.22c0-.86.7-1.56 1.56-1.55.86 0 1.56.69 1.55 1.55l.02 12.22c0 .88-.7 1.59-1.58 1.59-.88 0-1.59-.7-1.59-1.58v-.01zM1006.91 75.67l-.03-12.22c0-.87.7-1.58 1.58-1.59s1.58.7 1.59 1.58v.01l-.04 12.22c0 .85-.7 1.54-1.55 1.54-.86 0-1.54-.69-1.55-1.54zM1006.86 51.22l-.03-12.22c0-.91.73-1.65 1.64-1.65.91 0 1.65.73 1.65 1.64v.01l-.04 12.22c0 .89-.73 1.61-1.62 1.61-.88 0-1.6-.72-1.6-1.61zM1006.8 26.77l-.01-6 1.71 1.71-6 .02c-.95 0-1.72-.76-1.72-1.71s.76-1.72 1.71-1.72h.01l6 .02h.01c.93 0 1.69.76 1.68 1.7l-.02 6c0 .93-.76 1.68-1.69 1.68-.92-.02-1.67-.77-1.68-1.7zM990.29 22.53l-12.2.03c-.99 0-1.79-.8-1.8-1.79 0-.99.8-1.79 1.79-1.8h.01l12.2.04c.97 0 1.75.79 1.75 1.76s-.78 1.75-1.75 1.76zM965.89 22.59l-12.2.03c-1.03 0-1.87-.83-1.87-1.86 0-1.03.83-1.87 1.86-1.87h.01l12.2.04c1.01 0 1.83.82 1.82 1.83 0 1.01-.82 1.83-1.82 1.83zM941.48 22.59l-12.2-.03c-1.01 0-1.84-.82-1.84-1.84 0-1.01.82-1.84 1.84-1.84h12.2c1.02 0 1.85.82 1.86 1.85 0 1.03-.83 1.86-1.86 1.86zM917.08 22.53l-12.2-.03c-1 0-1.81-.81-1.81-1.81s.81-1.81 1.81-1.81h12.2c1.01 0 1.82.81 1.82 1.82s-.81 1.83-1.82 1.83zM892.67 22.48l-12.2-.03c-.98 0-1.77-.79-1.77-1.77s.79-1.77 1.77-1.77h12.2c.99 0 1.79.8 1.79 1.79.01.97-.79 1.77-1.79 1.78zM868.27 22.42l-6-.01 1.63-1.63-.01 6c0 .96-.78 1.74-1.74 1.74s-1.74-.78-1.74-1.74v-6c0-1.04.84-1.88 1.87-1.88h6c.97 0 1.76.78 1.76 1.76-.01.96-.79 1.75-1.77 1.76zM863.89 39l.01 12.22c0 .99-.8 1.79-1.79 1.79s-1.79-.8-1.79-1.79v-.01l.04-12.21v-.01c0-.98.8-1.76 1.77-1.76s1.76.79 1.76 1.77zM863.93 63.45l.05 12.22c0 1.02-.82 1.86-1.85 1.86-1.02 0-1.86-.82-1.86-1.85v-.02l.01-12.22c0-1.01.82-1.82 1.82-1.82 1.01.01 1.83.82 1.83 1.83zM864.03 87.9l.05 12.22c0 1.06-.85 1.92-1.91 1.93-1.06 0-1.92-.85-1.93-1.91v-.02l.01-12.22c0-1.04.85-1.89 1.89-1.88 1.05-.01 1.89.83 1.89 1.88zM864.1 112.34l-.01 12.23c0 1.04-.85 1.89-1.89 1.89s-1.89-.85-1.89-1.89l-.04-12.23c0-1.06.85-1.92 1.91-1.92s1.92.85 1.92 1.91v.01zM864.09 136.79l-.01 12.22c0 1.02-.82 1.84-1.84 1.84s-1.84-.83-1.84-1.84l-.04-12.22c0-1.03.83-1.87 1.86-1.87 1.03 0 1.87.83 1.87 1.86v.01z"/></g><path fill="#fff" d="M565.52 398h-72.92c0-20.14 16.32-36.46 36.46-36.46 10.07 0 19.18 4.08 25.79 10.68 6.59 6.6 10.67 15.72 10.67 25.78z"/><path fill="#EBEDF7" d="M554.85 372.22l-25.79 25.78v-36.46c10.08 0 19.19 4.08 25.79 10.68z"/><path fill="#fff" d="M492.6 344.43h72.92c0-20.14-16.32-36.46-36.46-36.46-10.07 0-19.18 4.08-25.79 10.68-6.59 6.59-10.67 15.71-10.67 25.78z"/><path fill="#EBEDF7" d="M503.28 318.64l25.79 25.79v-36.46c-10.08 0-19.19 4.08-25.79 10.67z"/><circle fill="#EBEDF7" cx="82.57" cy="420.32" r="6.31"/><circle fill="#EBEDF7" cx="82.57" cy="371.71" r="6.31"/><circle fill="#EBEDF7" cx="131.18" cy="420.32" r="6.31"/><circle fill="#EBEDF7" cx="131.18" cy="371.71" r="6.31"/><circle fill="#fff" cx="179.8" cy="420.32" r="6.31"/><circle fill="#fff" cx="179.8" cy="371.71" r="6.31"/><path fill="#fff" d="M1242.02 52.72c-.03 6.84-1.34 13.69-4.03 19.99-.71 1.55-1.51 3.06-2.25 4.6l-2.55 4.45c-.95 1.42-1.97 2.8-2.95 4.2l-3.35 3.91c-4.85 4.87-10.66 8.82-17.05 11.37-6.37 2.59-13.24 3.88-20.09 3.87-13.74.01-27.31-5.83-36.73-15.65-1.11-1.29-2.25-2.54-3.39-3.81-1.01-1.36-2.06-2.7-3.04-4.08-.88-1.45-1.79-2.89-2.61-4.38-.71-1.54-1.49-3.06-2.15-4.62-.56-1.6-1.17-3.19-1.67-4.81-.39-1.65-.84-3.29-1.18-4.94-.22-1.68-.53-3.35-.75-5.02l-.29-5.07c-.01-6.79 1.42-13.55 4.01-19.8 2.7-6.17 6.12-12.2 11.01-16.99 9.55-9.73 23.07-15.49 36.79-15.53l5.12.32c1.69.23 3.38.54 5.06.81 1.66.38 3.3.87 4.95 1.3 1.62.52 3.21 1.14 4.82 1.71 6.3 2.6 12.17 6.39 16.94 11.28l3.37 3.85 2.99 4.15c.88 1.45 1.81 2.88 2.65 4.36.74 1.54 1.53 3.05 2.21 4.61 2.65 6.27 4.09 13.08 4.16 19.92zm-2.36 0c-.04-6.54-1.35-13.06-3.87-19.07-.65-1.49-1.41-2.94-2.11-4.41-.8-1.42-1.69-2.79-2.53-4.18-.96-1.32-2-2.57-2.99-3.86l-3.34-3.55c-1.23-1.06-2.44-2.14-3.63-3.24-1.3-.97-2.57-1.98-3.89-2.93-1.39-.84-2.75-1.72-4.16-2.54-1.46-.71-2.9-1.48-4.38-2.14-5.98-2.59-12.5-3.86-19.03-3.91-6.52-.09-13.14 1-19.14 3.65-6.02 2.57-11.51 6.33-16.08 10.98l-3.24 3.66c-.97 1.31-2 2.57-3.03 3.84-.91 1.35-1.86 2.7-2.66 4.12-.69 1.49-1.4 2.96-2.02 4.47-.51 1.55-1.1 3.08-1.56 4.65-.36 1.59-.78 3.17-1.08 4.77-.2 1.62-.44 3.23-.61 4.84l-.07 2.44-.15 2.43.16 4.88c.17 1.61.39 3.23.65 4.84.35 1.59.8 3.16 1.2 4.73.5 1.55 1.13 3.05 1.68 4.58.64 1.49 1.39 2.94 2.08 4.41.79 1.42 1.68 2.79 2.48 4.2.92 1.34 1.9 2.64 2.86 3.96.53.62 1.08 1.22 1.63 1.83l1.69 1.77c4.81 4.38 10.13 8.21 16.11 10.9 1.52.59 3.02 1.26 4.58 1.73 1.59.39 3.16.84 4.76 1.19 1.61.26 3.22.6 4.84.84l4.91.37c6.59.19 13.2-1.18 19.25-3.78 6.05-2.6 11.53-6.43 16.14-11.08l3.34-3.6c.99-1.31 2.01-2.59 2.98-3.92.85-1.4 1.79-2.76 2.57-4.2.67-1.5 1.4-2.97 2.01-4.49 2.42-6.1 3.7-12.63 3.65-19.18zM1265.39 52.72c-.03 6.19-.79 12.38-2.27 18.39-.79 2.99-1.66 5.97-2.83 8.83l-.88 2.15-.97 2.1c-.61 1.42-1.39 2.76-2.08 4.15-2.85 5.48-6.35 10.65-10.42 15.33-1.05 1.14-2.06 2.32-3.21 3.37l-1.68 1.62-1.75 1.54c-1.14 1.05-2.4 1.97-3.6 2.95-1.26.91-2.49 1.86-3.79 2.71-20.68 13.88-48.34 16.56-71.12 6.66-5.69-2.41-11.07-5.55-15.99-9.27-2.43-1.9-4.8-3.88-6.98-6.06-2.24-2.12-4.31-4.4-6.29-6.76-3.9-4.77-7.21-10.02-9.81-15.6-2.58-5.59-4.47-11.49-5.67-17.52-2.48-12.06-1.73-24.72 1.85-36.48.43-1.48.98-2.91 1.47-4.37l.86-2.14c.28-.71.55-1.43.88-2.13l.92-2.12c.32-.7.68-1.38 1.01-2.07.65-1.4 1.43-2.72 2.17-4.08 1.54-2.67 3.27-5.23 5.18-7.66 1.86-2.47 3.96-4.73 6.09-6.96.18-.19.41-.28.65-.28h.03l26.3-.12c8.77-.03 17.53-.15 26.3-.11l13.15.11 6.57.05 6.57-.02c8.77-.01 17.53-.09 26.3-.04h.02c.3 0 .56.13.76.32 3.46 3.54 6.58 7.42 9.28 11.56 2.76 4.1 5.13 8.46 7.04 13.02 1.91 4.56 3.38 9.31 4.38 14.16 1 4.86 1.49 9.81 1.56 14.77zm-2.36 0c-.05-4.8-.5-9.61-1.46-14.31-.95-4.71-2.36-9.32-4.21-13.74-1.85-4.43-4.13-8.67-6.82-12.64-2.73-3.94-5.85-7.61-9.26-10.96l1.06.44c-8.77.04-17.53-.05-26.3-.12-8.77-.1-17.53-.08-26.3-.12-8.77-.05-17.53-.25-26.3-.21l-26.3.19.88-.37c-4.21 4.27-7.85 9.07-11 14.15-.77 1.29-1.62 2.53-2.32 3.85-.36.66-.74 1.3-1.09 1.97l-.96 2.04c-.68 1.34-1.14 2.78-1.7 4.17-.46 1.43-.98 2.84-1.37 4.29-1.64 5.77-2.63 11.72-2.8 17.71-.15 5.97.2 11.96 1.24 17.85 2.23 11.78 7.67 22.82 15.13 32.17 1.91 2.3 3.88 4.57 6.1 6.59 2.18 2.06 4.55 3.89 6.94 5.69 4.9 3.41 9.99 6.6 15.5 8.97 1.39.56 2.75 1.19 4.17 1.67l2.12.76c.72.22 1.43.44 2.16.64 1.43.44 2.91.72 4.37 1.08 1.47.3 2.95.56 4.43.79 5.93.97 11.97 1.24 17.99.74 12.04-.96 23.72-5.37 33.65-12.15 5.01-3.35 9.47-7.44 13.56-11.84 4.07-4.42 7.6-9.34 10.51-14.62 1.34-2.69 2.64-5.42 3.62-8.26.55-1.4.99-2.84 1.46-4.26.44-1.44.83-2.89 1.21-4.34 1.39-5.82 2.1-11.82 2.09-17.82z"/><path fill="#F3F4FB" d="M861.64 299.33h-69.66c-17.25 0-17.26 25.93 0 25.93h69.66c17.25 0 17.26-25.93 0-25.93z"/><circle fill="#fff" cx="807.54" cy="312.3" r="10.96"/><path fill="#F3F4FB" d="M861.64 340.02h-69.66c-17.25 0-17.26 25.93 0 25.93h69.66c17.25 0 17.26-25.93 0-25.93z"/><circle fill="#fff" cx="837.77" cy="352.98" r="10.96"/><path fill="#EBEDF7" d="M1381.475 199.676l104.05-104.05 104.05 104.05-104.05 104.05z"/><path fill="#fff" d="M1441.63 231.08c5.01-3.32 9.87-6.84 14.58-10.55 1.19-.91 2.36-1.85 3.51-2.81 1.16-.96 2.22-2.01 3.32-3.03 2.17-2.07 4.25-4.21 6.26-6.41 4.15-4.3 7.92-8.89 11.04-13.9 3.11-5.01 5.54-10.47 6.73-16.21.59-2.87.96-5.8.79-8.65-.14-2.84-.87-5.67-2.43-7.95-1.56-2.27-3.92-4.08-6.59-4.63-1.32-.27-2.71-.22-4.04.11s-2.61.97-3.77 1.79c-2.36 1.64-4.18 4.03-5.74 6.52-1.51 2.55-2.99 5.16-4.2 7.89-1.24 2.72-2.33 5.5-3.25 8.35-.9 2.85-1.53 5.78-2.05 8.73-1 5.89-1.44 11.9-.95 17.86.3 5.98 2.01 11.85 4.96 16.85 1.52 2.46 3.52 4.64 5.86 6.31 2.34 1.66 5.04 2.79 7.85 3.09 2.81.31 5.7-.16 8.37-1.19 2.67-1.03 5.16-2.56 7.31-4.47 2.21-1.87 4.13-4.1 5.82-6.51.85-1.2 1.64-2.46 2.39-3.74.76-1.29 1.38-2.6 2.14-3.99.77-1.36 1.76-2.84 3.47-3.73.87-.42 1.8-.59 2.74-.54.93.07 1.94.36 2.74 1.12.4.36.71.86.89 1.37.18.5.24 1 .26 1.44.02.44 0 .84 0 1.19-.01.35.04.69.06 1.03.12 1.36.43 2.69 1.06 3.85 1.25 2.34 3.86 3.79 6.65 4.14 2.8.31 5.73-.18 8.37-1.29 2.63-1.1 5.04-2.82 6.68-5.08.82-1.12 1.49-2.36 1.85-3.68.38-1.32.51-2.7.45-4.07v-.02c-.03-.65.47-1.2 1.12-1.23.65-.03 1.2.47 1.23 1.12v.01c.07 1.64-.11 3.3-.58 4.89-.46 1.59-1.27 3.06-2.24 4.38-1.96 2.64-4.7 4.55-7.66 5.78-2.97 1.23-6.23 1.79-9.5 1.41-1.63-.19-3.29-.61-4.81-1.44-1.52-.82-2.88-2.08-3.78-3.61-.92-1.53-1.37-3.26-1.47-4.94-.02-.42-.06-.84-.05-1.26.01-.41.02-.76.02-1.05-.03-.61-.11-.83-.32-1.04-.2-.22-.63-.4-1.13-.44-.5-.04-1.03.06-1.47.25-.91.43-1.76 1.46-2.45 2.66-.7 1.22-1.43 2.64-2.2 3.95-.77 1.33-1.58 2.65-2.47 3.92-1.76 2.55-3.79 4.96-6.17 7.02-4.81 4.06-11.12 6.51-17.57 5.94-3.21-.33-6.28-1.61-8.89-3.45-2.61-1.85-4.8-4.23-6.48-6.94-1.67-2.69-2.9-5.66-3.47-8.72-.16-.76-.29-1.53-.4-2.29-.13-.76-.25-1.52-.36-2.29-.24-1.52-.47-3.04-.59-4.57-.32-3.05-.41-6.13-.33-9.2.02-1.54.14-3.07.26-4.61l.23-2.3c.11-.76.27-1.52.4-2.27.56-3.03 1.42-5.99 2.3-8.93.91-2.93 1.96-5.82 3.2-8.64 1.26-2.81 2.69-5.51 4.33-8.15.85-1.31 1.78-2.58 2.82-3.78.52-.6 1.07-1.17 1.65-1.73.57-.56 1.17-1.11 1.82-1.61 1.29-1 2.78-1.84 4.42-2.35 1.65-.47 3.44-.61 5.14-.22 3.42.74 6.21 2.98 8.01 5.7 1.8 2.79 2.68 5.97 2.88 9.12.14 3.17-.37 6.24-1.03 9.24-2.83 12-9.62 22.69-18.08 31.41-8.69 8.52-18.07 16.29-28.15 23.04-.54.36-1.28.22-1.64-.32-.37-.55-.22-1.28.33-1.65z"/><path fill="#EBEDF7" d="M1042.42 200.7l148.18 148.18v-148.18z"/><circle fill="#F3F4F8" cx="1264.36" cy="281.1" r="6.31"/><circle fill="#F3F4F8" cx="1264.36" cy="232.48" r="6.31"/><circle fill="#F3F4F8" cx="1312.97" cy="281.1" r="6.31"/><circle fill="#F3F4F8" cx="1312.97" cy="232.48" r="6.31"/><circle fill="#fff" cx="1361.59" cy="281.1" r="6.31"/><circle fill="#fff" cx="1361.59" cy="232.48" r="6.31"/><path fill="#fff" d="M893.89 52.51h147.15v147.15h-147.15z"/><path fill="#EBEDF7" d="M8.34 52.51h147.15v147.15h-147.15zM1007.38 127.85c-1.66.02-3.33-.02-4.99-.08-1.66-.38-3.33.24-4.99.36-3.33.19-6.65-.2-9.98-.24l-2.5-.07-2.49-.17-2.49-.16c-.83-.05-1.66-.17-2.49-.23-.83-.1-1.66-.05-2.5-.05-.83.02-1.66-.05-2.5-.07-.83-.05-1.66-.12-2.49-.15-.83-.04-1.66.03-2.5.05-1.66.02-3.33-.11-4.99-.14-1.66-.16-3.33.49-4.99.4l-9.98.34c-1.66-.05-3.33-.35-4.99-.27-1.66.03-3.33.17-4.99.05-.83-.09-1.66-.23-2.49-.24-.83.02-1.66 0-2.5.05l-4.99.25c-.87.04-1.61-.62-1.65-1.49s.62-1.61 1.49-1.65h.16999999999999998c1.66-.02 3.33-.07 4.99-.06.83.01 1.66-.03 2.5-.05.83-.04 1.66-.19 2.5-.28 1.66-.09 3.33.08 4.99.19 1.66.14 3.33.11 4.99.19.83.05 1.66.18 2.49.26.83.07 1.66.04 2.5 0 1.66-.06 3.33-.27 4.99-.31.83 0 1.66-.14 2.49.17.83.31 1.66.24 2.49.16 1.66-.18 3.33-.55 4.99-.52.83.08 1.66.29 2.49.27.83 0 1.66-.06 2.5-.07.83.02 1.66-.01 2.5.06.83.07 1.66.19 2.5.05.83-.12 1.67-.32 2.5-.2.83.03 1.66.26 2.49.38.42.05.83.12 1.25.12.42-.01.83-.05 1.25-.02.83.08 1.66.23 2.49.37 1.66.27 3.33.21 4.99.08 1.66-.09 3.33-.3 4.99-.31 1.66.01 3.32.49 4.99.09 1.66-.1 3.33-.19 4.99-.2.87-.01 1.58.69 1.59 1.56.01.87-.69 1.58-1.56 1.59l-.05-.01zM965.7 166.01c-.02-1.66.02-3.33.08-4.99.38-1.66-.24-3.33-.36-4.99-.19-3.33.2-6.65.24-9.98l.07-2.5.17-2.49.16-2.49c.05-.83.17-1.66.23-2.49.1-.83.05-1.66.05-2.5-.02-.83.05-1.66.07-2.49.05-.83.12-1.66.15-2.5.04-.83-.03-1.66-.05-2.5-.03-1.66.11-3.33.14-4.99.16-1.66-.49-3.33-.4-4.99l-.34-9.98c.05-1.66.36-3.33.27-4.99-.03-1.66-.17-3.33-.05-4.99.09-.83.23-1.66.24-2.49-.02-.83 0-1.66-.05-2.5l-.25-4.99c-.04-.87.62-1.61 1.49-1.65.87-.04 1.61.62 1.65 1.49v.16999999999999998c.02 1.66.07 3.33.07 4.99-.01.83.03 1.66.05 2.5.04.83.19 1.66.28 2.5.09 1.66-.08 3.33-.19 4.99-.14 1.66-.11 3.33-.19 4.99-.05.83-.18 1.66-.26 2.49-.07.83-.04 1.66 0 2.5.06 1.66.27 3.33.31 4.99 0 .83.14 1.66-.17 2.49-.31.83-.24 1.66-.16 2.49.18 1.66.55 3.33.52 4.99-.08.83-.29 1.66-.27 2.49 0 .83.06 1.66.07 2.5-.02.83.01 1.66-.06 2.5-.07.83-.19 1.66-.05 2.5.13.83.32 1.67.2 2.5-.03.83-.26 1.66-.38 2.49-.05.42-.12.83-.12 1.25.01.42.05.83.02 1.25-.08.83-.23 1.66-.37 2.49-.27 1.66-.21 3.33-.08 4.99.09 1.66.3 3.33.31 4.99-.01 1.66-.49 3.32-.09 4.99.1 1.66.19 3.33.2 4.99.01.87-.69 1.58-1.56 1.59s-1.58-.69-1.59-1.56v-.05z"/><circle fill="#F3F4FB" cx="1116.51" cy="274.79" r="54.81"/><circle fill="#fff" cx="1116.51" cy="274.79" r="28.84"/></g></svg>