<?xml version="1.0" encoding="UTF-8"?>
<!-- Generator: Adobe Illustrator 22.1.0, SVG Export Plug-In . SVG Version: 6.00 Build 0)  -->
<svg xmlns="http://www.w3.org/2000/svg" xmlns:xlink="http://www.w3.org/1999/xlink" id="Layer_1" x="0px" y="0px" viewBox="0 0 20.7 25" style="enable-background:new 0 0 20.7 25;" xml:space="preserve">
<style type="text/css">
	.st0{fill:#4B71FC;}
	.st1{fill:#819BFC;}
	.st2{fill:#FFFFFF;}
</style>
<title>01Artboard 1</title>
<g>
	<path class="st0" d="M20.7,14.1c0,7.5-10.3,10.9-10.3,10.9S0,21.6,0,14.1V0h20.7V14.1z"></path>
	<polygon class="st1" points="0,14.5 0,0 14.5,0  "></polygon>
	<path class="st2" d="M10.7,12.6H8.7v3.5H6.2V4.5h4.7c2.8,0,4.4,1.6,4.4,4l0,0C15.3,11.2,13.2,12.6,10.7,12.6z M12.8,8.6   c0-1.1-0.8-1.8-2.1-1.8h-2v3.5h2c1,0.1,1.9-0.6,2-1.6C12.7,8.7,12.7,8.7,12.8,8.6L12.8,8.6z"></path>
</g>
</svg>
